C:UsersJoelContactsBlue Montain State 1x06[ AC3 + Spanish].mkv
   General
      Complete name : C:UsersJoelContactsBlue Montain State 1x06[ AC3 + 

Spanish].mkv
      Format : Matroska
      File size : 380 MiB
      Duration : 21mn 43s
      Overall bit rate : 2 449 Kbps
      Encoded date : UTC 2010-05-24 22:32:19
      Writing application : VirtualDubMod 1.5.10.2 (build 2540/release)
      Writing library : libebml-0.7.5 & libmatroska-0.7.7
   Video #1
      ID : 1
      Format : MPEG-4 Visual
      Format profile : AdvancedSimple@L5
      Format settings, BVOP : No
      Format settings, QPel : No
      Format settings, GMC : No warppoints
      Format settings, Matrix : Default (H.263)
      Codec ID : XVID
      Codec ID/Hint : XviD
      Duration : 21mn 42s
      Bit rate : 1 952 Kbps
      Width : 704 pixels
      Height : 396 pixels
      Display aspect ratio : 16:9
      Frame rate : 23.976 fps
      Resolution : 24 bits
      Colorimetry : 4:2:0
      Scan type : Progressive
      Bits/(Pixel*Frame) : 0.292
      Stream size : 303 MiB (80%)
      Writing library : XviD 1.2.1 (UTC 2008-12-04)
   Audio #2
      ID : 2
      Format : AC-3
      Format/Info : Audio Coding 3
      Codec ID : A_AC3
      Duration : 21mn 43s
      Bit rate mode : Constant
      Bit rate : 448 Kbps
      Channel(s) : 2 channels
      Channel positions : L R
      Sampling rate : 48.0 KHz
      Stream size : 69.6 MiB (18%)